<svg height="37" viewBox="0 0 30 37" width="30" xmlns="http://www.w3.org/2000/svg"><path d="m124 500v2h6v-2zm10 25v-2c0-1.656854 1.343146-3 3-3h2c1.656854 0 3 1.343146 3 3v6c0 1.656854-1.343146 3-3 3h-2c-1.656854 0-3-1.343146-3-3v-2h-2c0 1.104569-.895431 2-2 2h-6c-1.104569 0-2-.895431-2-2h-2v2c0 1.656854-1.343146 3-3 3h-2c-1.656854 0-3-1.343146-3-3v-6c0-1.656854 1.343146-3 3-3h2c1.656854 0 3 1.343146 3 3v2h2c0-1.104569.895431-2 2-2h2v-19h-2c-1.104569 0-2-.895431-2-2h-2v2c0 1.656854-1.343146 3-3 3h-2c-1.656854 0-3-1.343146-3-3v-6c0-1.656854 1.343146-3 3-3h2c1.656854 0 3 1.343146 3 3v2h2c0-1.104569.895431-2 2-2h6c1.104569 0 2 .895431 2 2h2v-2c0-1.656854 1.343146-3 3-3h2c1.656854 0 3 1.343146 3 3v6c0 1.656854-1.343146 3-3 3h-2c-1.656854 0-3-1.343146-3-3v-2h-2c0 1.104569-.895431 2-2 2h-2v19h2c1.104569 0 2 .895431 2 2zm-10 0v2h6v-2zm-9-28c-.552285 0-1 .447715-1 1v6c0 .552285.447715 1 1 1h2c.552285 0 1-.447715 1-1v-6c0-.552285-.447715-1-1-1zm22 0c-.552285 0-1 .447715-1 1v6c0 .552285.447715 1 1 1h2c.552285 0 1-.447715 1-1v-6c0-.552285-.447715-1-1-1zm-22 25c-.552285 0-1 .447715-1 1v6c0 .552285.447715 1 1 1h2c.552285 0 1-.447715 1-1v-6c0-.552285-.447715-1-1-1zm22 0c-.552285 0-1 .447715-1 1v6c0 .552285.447715 1 1 1h2c.552285 0 1-.447715 1-1v-6c0-.552285-.447715-1-1-1z" transform="translate(-112 -495)"/></svg>