<svg fill="none" height="24" viewBox="0 0 24 24" width="24" xmlns="http://www.w3.org/2000/svg"><g stroke="#141b34" stroke-width="1.5"><path d="m5 6v-.5c0-.94281 0-1.41421.29289-1.70711.2929-.29289.7643-.29289 1.70711-.29289s1.41421 0 1.70711.29289c.29289.2929.29289.7643.29289 1.70711v.5"/><path d="m15 5h3" stroke-linecap="round"/><path d="m16 2h-1.3333c-1.8735 0-2.6667.93374-2.6667 2.66667 0 .86646-.3966 1.33333-1.3333 1.33333h-3.6667c-1.88562 0-2.82843 0-3.41421.58579-.58579.58578-.58579 1.52859-.58579 3.41421v5c0 3.2998 0 4.9497 1.02513 5.9749 1.02512 1.0251 2.67504 1.0251 5.97487 1.0251h4c3.2998 0 4.9497 0 5.9749-1.0251 1.0251-1.0252 1.0251-2.6751 1.0251-5.9749v-8c0-2.35702 0-3.53553-.7322-4.26777-.7323-.73223-1.9108-.73223-4.2678-.73223z"/><path d="m9 14.5873c0-1.4644 1.2638-2.9116 2.1509-3.747.4817-.4537 1.2165-.4537 1.6982 0 .8871.8354 2.1509 2.2826 2.1509 3.747 0 1.4358-1.136 2.9127-3 2.9127s-3-1.4769-3-2.9127z"/></g></svg>