<svg fill="none" height="24" viewBox="0 0 24 24" width="24" xmlns="http://www.w3.org/2000/svg"><g stroke="#141b34"><path d="m22 12c0 5.5228-4.4772 10-10 10-5.52285 0-10-4.4772-10-10 0-5.52285 4.47715-10 10-10 5.5228 0 10 4.47715 10 10z" stroke-width="1.5"/><g stroke-linecap="round" stroke-linejoin="round"><path d="m18.9181 10.4125c-.969.4242-2.433.8055-3.7586.3043-1.8957-.7168-2.8702-.7168-3.1595-.7168s-1.2638 0-3.15951.7168c-1.32557.5012-2.78957.1199-3.75863-.3043m13.91814 2.8423c-2.1454.4083-5.3921 1.6232-5.4762 5.7452m-3.0476 0c-.0841-4.122-3.33076-5.3369-5.4762-5.7452" stroke-width="1.5"/><path d="m12.008 13h-.009" stroke-width="2"/></g></g></svg>