<?xml version="1.0" standalone="no"?>
<!DOCTYPE svg PUBLIC "-//W3C//DTD SVG 20010904//EN"
 "http://www.w3.org/TR/2001/REC-SVG-20010904/DTD/svg10.dtd">
<svg version="1.0" xmlns="http://www.w3.org/2000/svg"
 width="1024.000000pt" height="1024.000000pt" viewBox="0 0 1024.000000 1024.000000"
 preserveAspectRatio="xMidYMid meet">
<metadata>
Created by potrace 1.14, written by Peter Selinger 2001-2017
</metadata>
<g transform="translate(0.000000,1024.000000) scale(0.100000,-0.100000)"
fill="#000000" stroke="none">
<path d="M0 5120 l0 -5120 5120 0 5120 0 0 5120 0 5120 -5120 0 -5120 0 0
-5120z m4745 3660 c7 0 16 -7 19 -16 5 -13 9 -14 21 -4 11 9 26 9 62 2 76 -17
130 -21 141 -10 6 6 18 4 35 -6 13 -9 53 -20 88 -25 35 -4 73 -12 83 -16 15
-7 18 -5 13 7 -4 12 -1 14 14 11 11 -3 22 -10 25 -15 3 -5 12 -4 20 3 12 9 13
6 10 -17 -2 -16 -1 -21 1 -11 5 18 17 20 48 7 18 -8 18 -9 -5 -10 l-25 -1 25
-14 c29 -17 66 -19 75 -5 10 16 25 2 18 -16 -5 -13 -1 -15 15 -10 11 4 23 2
27 -4 3 -5 19 -10 36 -10 16 0 29 -4 29 -10 0 -5 7 -10 15 -10 9 0 33 -9 55
-20 22 -11 51 -20 66 -20 17 0 28 -6 31 -20 3 -13 14 -20 29 -20 12 0 26 -5
29 -10 4 -6 11 -8 16 -5 5 3 6 -1 3 -9 -7 -17 7 -21 99 -31 56 -6 57 -7 37
-23 -21 -17 -20 -17 10 -18 17 -1 42 -7 56 -15 22 -11 27 -11 35 1 8 11 9 9 4
-7 -5 -18 -3 -22 9 -17 8 3 29 -1 47 -10 17 -9 43 -13 58 -11 22 4 23 4 6 -4
-17 -7 -15 -10 19 -16 39 -8 101 -35 80 -35 -6 0 -40 9 -74 20 -34 11 -70 20
-79 20 -9 -1 38 -18 104 -39 384 -122 649 -256 960 -485 187 -138 394 -344
533 -528 256 -343 406 -665 482 -1033 48 -234 50 -515 6 -835 -29 -208 -87
-477 -96 -440 -5 21 -7 18 -19 -21 -16 -52 -93 -230 -98 -226 -2 2 13 48 32
103 19 54 35 116 35 137 0 26 4 36 12 31 7 -5 9 0 6 14 -6 23 -2 44 31 157 26
92 42 183 47 275 2 41 9 107 16 145 15 92 15 437 -1 545 -61 423 -212 786
-471 1136 -87 116 -358 391 -480 486 -127 98 -318 223 -445 289 -61 33 -116
59 -121 59 -5 0 47 -31 116 -68 141 -77 290 -175 430 -282 124 -96 395 -364
385 -381 -5 -7 -4 -10 2 -6 14 9 38 -21 38 -48 1 -12 -5 -28 -13 -35 -12 -11
-13 -9 -8 11 6 21 6 22 -5 6 -15 -26 3 -44 23 -23 9 8 19 12 24 8 5 -4 2 1 -5
11 -8 9 -12 20 -9 23 3 2 17 -11 32 -30 16 -21 22 -37 16 -41 -6 -4 -9 -1 -8
5 4 15 -39 23 -47 9 -4 -5 -2 -16 4 -23 6 -7 9 -15 6 -18 -3 -3 2 -11 12 -19
15 -13 16 -12 9 6 -5 15 -4 17 4 9 7 -7 9 -21 5 -34 -5 -16 -10 -19 -15 -10
-5 8 -9 6 -12 -7 -3 -10 0 -24 6 -30 23 -25 37 -43 32 -43 -16 0 -36 14 -36
26 0 8 -5 14 -11 14 -7 0 -5 -10 5 -25 27 -42 18 -83 -12 -53 -8 8 -12 9 -12
1 0 -6 6 -18 13 -25 8 -7 12 -19 11 -26 -1 -7 0 -8 3 -2 2 5 14 10 26 9 15 0
17 -2 7 -6 -34 -13 -38 -40 -7 -53 12 -5 16 -9 9 -9 -9 -1 -11 -8 -7 -20 3
-11 1 -22 -5 -26 -5 -3 -10 -1 -10 6 0 7 -2 10 -5 7 -10 -10 7 -38 24 -38 10
0 12 -3 4 -8 -8 -5 -5 -19 12 -49 12 -23 24 -41 26 -39 2 3 5 -5 5 -17 1 -12
19 -62 39 -112 48 -114 90 -257 117 -405 19 -96 22 -152 23 -345 0 -246 -6
-301 -55 -490 -58 -227 -155 -441 -291 -643 -97 -145 -166 -227 -300 -358
-199 -194 -368 -314 -615 -437 -83 -42 -210 -97 -223 -97 -2 0 74 40 170 88
183 93 328 181 368 226 14 14 28 26 33 26 14 0 68 42 63 50 -2 3 57 66 131
140 74 73 134 138 134 144 0 5 -10 0 -22 -11 -63 -56 -91 -78 -99 -76 -5 2 -8
-1 -6 -5 1 -4 -14 -21 -33 -38 -53 -44 -75 -60 -67 -48 3 6 -12 24 -33 40 -44
32 -48 41 -22 47 9 2 3 2 -15 0 -23 -3 -34 1 -42 14 -8 14 -14 16 -28 7 -17
-10 -18 -8 -15 22 3 20 0 34 -7 34 -6 0 -8 -7 -5 -15 4 -10 0 -15 -15 -15 -12
0 -21 -4 -21 -10 0 -5 5 -10 12 -10 6 0 9 -3 6 -6 -4 -3 -20 1 -36 10 -26 14
-31 14 -42 1 -7 -8 -23 -21 -35 -28 -12 -6 -70 -45 -129 -84 -59 -40 -109 -73
-110 -73 -2 0 -34 -17 -72 -38 -74 -40 -256 -122 -270 -122 -5 1 54 31 131 69
158 76 265 139 377 221 338 247 589 579 708 937 69 209 96 412 84 639 l-7 130
47 52 c25 29 46 58 46 65 0 7 10 24 22 36 12 13 27 40 34 60 9 24 14 29 14 16
1 -15 5 -12 16 14 8 18 24 35 34 38 22 6 27 29 8 35 -8 3 -6 7 5 11 21 8 31
-9 56 -106 36 -134 51 -267 51 -459 0 -260 -37 -473 -125 -711 -48 -133 -49
-138 -16 -76 108 202 181 579 168 864 -22 462 -199 889 -548 1320 -122 151
-133 168 -94 137 43 -34 43 -17 0 24 -30 27 -40 32 -47 22 -7 -10 -8 -8 -4 5
7 21 -27 53 -184 173 -94 71 -355 234 -375 234 -7 0 -152 66 -179 81 -11 6
-40 12 -65 14 -25 1 -107 21 -181 43 -74 23 -229 66 -345 97 -115 30 -221 59
-235 64 -33 12 -98 29 -135 36 -23 4 -26 3 -15 -5 20 -14 -53 -7 -95 10 -24 9
-110 18 -212 21 -13 1 -23 5 -23 10 0 6 -6 9 -12 8 -36 -4 -82 2 -70 10 9 6 5
8 -15 8 -15 0 -64 10 -108 22 -87 25 -102 28 -155 37 -19 3 -38 8 -42 11 -23
14 -44 10 -45 -9 -1 -14 1 -17 10 -9 9 6 50 -1 132 -24 66 -18 197 -54 290
-80 947 -261 1238 -354 1445 -462 304 -160 546 -401 670 -669 46 -97 89 -235
95 -304 4 -40 4 -41 -4 -12 -5 18 -10 35 -12 37 -2 2 -4 -45 -4 -103 0 -86 -6
-131 -32 -232 -37 -146 -77 -260 -102 -287 -10 -11 -30 -40 -44 -64 -73 -131
-146 -230 -234 -316 -52 -51 -99 -93 -105 -93 -5 0 -7 -4 -4 -9 6 -10 -22 -25
-40 -22 -7 1 -14 -5 -17 -13 -7 -19 -87 -77 -97 -71 -4 2 -20 -9 -35 -25 -16
-17 -33 -30 -37 -30 -5 0 -57 -24 -116 -53 -123 -62 -206 -92 -224 -81 -8 5
-7 1 2 -11 10 -13 11 -16 2 -11 -8 5 -39 5 -69 1 -33 -4 -51 -10 -44 -15 10
-5 9 -9 -3 -13 -9 -4 -16 -2 -16 4 0 6 -7 6 -20 -1 -11 -6 -25 -8 -30 -5 -5 3
-38 -1 -73 -9 -123 -29 -354 -49 -497 -43 -74 3 -144 9 -155 13 -19 7 -19 7
-5 -13 8 -11 37 -47 63 -79 26 -33 80 -122 119 -199 39 -77 74 -144 78 -150 4
-5 73 -140 154 -298 81 -158 170 -329 198 -380 27 -51 91 -168 140 -262 50
-93 124 -233 166 -310 41 -77 92 -171 113 -210 20 -38 60 -113 89 -165 88
-163 149 -293 156 -334 5 -28 4 -37 -5 -32 -6 4 -14 0 -17 -8 -3 -9 -17 -16
-30 -16 -18 0 -22 4 -18 18 18 56 -17 -25 -41 -96 -15 -45 -30 -80 -32 -78 -3
2 8 48 23 101 32 112 32 113 -44 250 -26 47 -63 115 -83 150 -19 36 -38 63
-41 60 -3 -4 -11 10 -18 31 -7 20 -15 31 -19 25 -5 -7 -12 -4 -20 8 -9 12 -21
17 -34 13 -14 -3 -18 -1 -13 6 5 9 -7 12 -43 12 -42 0 -51 -3 -56 -21 -7 -21
-8 -21 -24 5 -16 24 -19 25 -31 11 -7 -8 -19 -15 -26 -15 -17 0 -18 -17 -1
-22 6 -3 -2 -5 -20 -5 -28 0 -31 3 -22 19 6 11 8 24 5 31 -3 8 -5 6 -5 -3 -1
-20 -53 -42 -77 -33 -18 7 -18 6 -1 -11 18 -19 23 -31 7 -21 -16 10 -141 -7
-155 -21 -11 -11 -14 -11 -19 1 -3 8 -2 23 1 32 6 15 5 16 -9 3 -13 -13 -13
-18 -1 -50 9 -19 19 -39 23 -45 11 -14 81 -178 77 -181 -2 -3 -71 121 -160
288 -39 74 -47 68 -11 -8 15 -32 27 -64 27 -71 0 -6 5 -9 10 -6 6 4 8 0 4 -10
-20 -49 -20 -53 -3 -32 16 20 16 19 10 -6 -3 -17 1 -39 12 -60 20 -36 27 -72
13 -63 -5 3 -9 14 -9 24 0 10 -5 22 -11 25 -5 4 -27 41 -48 83 -21 43 -64 127
-96 187 -31 61 -120 235 -197 388 -78 153 -143 276 -145 273 -3 -3 6 -26 20
-53 44 -86 117 -243 117 -251 -1 -4 -10 11 -22 33 -11 22 -27 48 -36 58 -8 9
-12 17 -8 17 4 0 -1 15 -12 33 -21 35 -106 192 -132 245 -9 18 -19 30 -22 26
-4 -3 -4 3 -1 14 2 11 0 23 -6 26 -7 5 -8 1 -4 -11 3 -10 3 -15 -1 -12 -4 4
-9 19 -12 34 -3 16 -14 39 -24 53 -11 14 -20 31 -20 38 0 8 -4 14 -10 14 -5 0
-6 7 -3 17 4 10 2 14 -4 10 -13 -8 -27 20 -24 48 2 11 0 17 -5 13 -6 -6 -254
480 -254 498 0 2 -16 38 -35 78 -33 70 -60 191 -35 156 12 -16 13 -20 -9 65
-13 50 0 138 24 165 9 10 20 18 24 17 11 -4 64 43 57 50 -4 4 -15 -2 -24 -14
-16 -21 -27 -23 -62 -11 -8 3 -40 13 -70 22 -30 8 -93 27 -140 42 -47 14 -89
27 -95 29 -12 2 -29 8 -75 24 -19 7 -52 17 -73 22 -22 5 -56 18 -78 29 -21 11
-42 19 -46 18 -12 -2 -66 12 -85 23 -10 5 -25 9 -33 9 -8 0 -15 7 -15 16 0 11
-6 14 -21 9 -15 -5 -19 -4 -15 4 7 10 -26 16 -61 12 -7 -1 -13 3 -13 9 0 5 -9
10 -21 10 -11 0 -17 5 -14 10 3 6 1 10 -6 10 -11 0 -99 -86 -99 -96 0 -2 9 -4
19 -4 18 0 55 -10 226 -62 254 -77 645 -211 639 -219 -3 -6 -19 -7 -37 -3 -53
11 -748 234 -792 253 -31 14 -59 24 -70 26 -15 2 -8 21 31 80 21 31 33 59 28
66 -4 7 -3 10 4 5 16 -10 34 28 20 42 -8 8 9 42 62 124 79 122 109 160 120
153 4 -3 13 2 20 10 7 8 18 15 24 15 12 0 13 1 145 205 103 159 148 226 174
258 33 40 -91 -157 -187 -298 -11 -16 -40 -59 -63 -95 l-43 -64 48 -14 c26 -8
142 -45 257 -82 641 -209 892 -281 1050 -299 239 -29 460 6 649 101 206 103
321 225 438 466 46 94 52 114 63 215 14 123 12 232 -4 317 -6 30 -12 62 -14
70 -1 8 -8 25 -14 36 -7 12 -9 24 -6 28 3 3 1 6 -6 6 -7 0 -9 4 -6 10 8 13
-54 108 -108 167 -55 61 -185 156 -268 199 -94 47 -225 89 -604 195 -369 102
-385 107 -367 108 7 1 85 -19 174 -44 155 -43 211 -55 159 -34 -13 5 -110 34
-215 64 -222 64 -236 69 -236 90 0 9 4 14 8 11 4 -2 6 11 4 29 -2 19 -9 33
-14 32 -6 -1 -17 21 -26 48 l-16 50 -6 -40 c-4 -28 -39 -89 -117 -205 -61 -91
-172 -257 -248 -370 -132 -198 -299 -445 -483 -713 -48 -70 -105 -156 -127
-191 -22 -35 -81 -118 -130 -185 -121 -164 -222 -306 -299 -421 -173 -255
-373 -537 -389 -547 -29 -19 -134 -38 -177 -32 -25 4 -141 10 -258 14 l-212 8
-20 -23 c-11 -13 -20 -29 -20 -36 0 -8 -6 -11 -17 -7 -13 5 -15 2 -10 -11 4
-10 3 -15 -3 -11 -6 3 -10 4 -10 1 0 -2 -2 -10 -5 -18 -4 -11 47 -13 277 -15
209 -1 284 -5 286 -13 3 -9 7 -9 13 1 8 13 15 2 33 -57 6 -21 6 -21 -76 -8
-91 15 -391 42 -505 46 -40 1 -73 4 -73 5 0 16 244 382 467 701 81 117 180
258 218 314 108 157 415 596 691 988 269 383 307 436 426 607 42 62 97 138
121 170 84 113 218 313 205 308 -7 -3 -20 -18 -30 -33 -9 -15 -44 -65 -77
-112 -33 -47 -91 -128 -128 -180 -37 -52 -87 -118 -110 -147 -23 -28 -39 -54
-36 -57 4 -3 1 -6 -6 -6 -6 0 -15 -10 -20 -23 -5 -13 -38 -61 -73 -108 -35
-46 -79 -105 -97 -132 -18 -27 -37 -45 -43 -41 -7 4 -8 2 -4 -4 11 -18 -4 -37
-16 -21 -8 11 -9 10 -4 -3 7 -22 -3 -50 -15 -42 -5 3 -9 -2 -9 -11 0 -10 -5
-13 -12 -9 -7 4 -8 3 -4 -5 8 -12 -28 -64 -37 -54 -4 3 3 14 14 24 13 11 16
20 9 24 -6 3 -8 11 -5 16 4 5 1 9 -5 9 -7 0 -9 -8 -5 -21 5 -16 4 -19 -5 -14
-8 5 -11 4 -7 -2 7 -12 -40 -59 -49 -50 -4 4 -1 14 7 23 12 15 12 16 -6 11
-23 -8 -37 0 -53 28 -9 15 -11 16 -12 4 0 -8 9 -25 20 -37 22 -23 26 -42 10
-42 -5 0 -10 7 -10 15 0 8 -5 15 -11 15 -7 0 -18 8 -26 18 -12 14 -15 14 -20
3 -4 -11 -9 -9 -17 8 l-12 22 -15 -28 c-8 -15 -20 -33 -28 -39 -8 -7 -11 -16
-6 -24 5 -9 4 -11 -4 -6 -6 4 -14 0 -18 -11 -4 -10 -13 -24 -21 -32 -7 -7 -11
-20 -8 -27 3 -8 1 -13 -4 -11 -6 1 -16 -8 -23 -19 -6 -12 -21 -34 -31 -50 -11
-16 -38 -58 -61 -94 -100 -156 -149 -230 -152 -230 -5 0 1 10 42 75 120 185
803 1297 811 1320 6 15 -206 -69 -314 -124 -549 -278 -978 -727 -1181 -1238
-58 -146 -112 -363 -109 -438 l1 -40 7 45 c4 25 8 35 8 23 1 -12 8 -24 15 -26
8 -4 9 -8 1 -14 -6 -4 -14 -23 -17 -40 -5 -27 -2 -37 19 -57 27 -25 28 -28 24
-144 -2 -55 -6 -75 -19 -82 -10 -6 -11 -10 -3 -10 10 0 11 -16 6 -72 -4 -40
-10 -74 -15 -76 -4 -2 -5 -10 -2 -19 4 -10 2 -14 -4 -10 -17 11 -14 -127 4
-201 8 -35 13 -72 10 -82 -3 -11 0 -21 5 -22 6 -2 2 -10 -8 -18 -11 -9 -15
-10 -10 -2 4 6 3 12 -3 12 -5 0 -11 -10 -13 -22 -3 -15 -7 -5 -12 27 -5 28
-12 55 -16 60 -14 17 -38 127 -50 225 -15 131 -21 163 -25 158 -8 -7 15 -228
31 -305 19 -95 9 -129 -42 -139 -20 -4 -34 -12 -34 -21 0 -7 -11 -24 -25 -37
-14 -13 -25 -31 -25 -40 0 -9 -6 -19 -14 -22 -8 -3 -19 -19 -25 -36 -6 -16
-15 -27 -21 -23 -5 3 -10 1 -10 -4 0 -6 5 -11 11 -11 5 0 7 -5 4 -10 -4 -6 -1
-26 5 -45 23 -69 3 -58 -28 15 -34 81 -44 81 -13 1 13 -35 15 -51 7 -54 -6 -2
0 -13 14 -26 17 -15 21 -24 13 -27 -14 -6 -18 -34 -5 -34 4 0 8 -9 9 -20 1
-11 -3 -20 -8 -20 -6 0 -7 5 -4 10 9 15 -17 12 -38 -4 -14 -11 -15 -15 -5 -19
8 -4 5 -8 -9 -12 -13 -4 -23 -11 -23 -15 0 -4 -13 -13 -30 -20 -16 -7 -27 -17
-23 -23 4 -6 0 -8 -10 -4 -9 3 -19 1 -23 -5 -4 -7 -3 -8 4 -4 7 4 12 4 12 1 0
-9 -28 -36 -35 -35 -8 1 -65 -70 -65 -81 0 -5 -7 -6 -15 -3 -11 5 -13 2 -8
-12 4 -12 3 -15 -5 -10 -7 4 -12 2 -12 -6 0 -7 -14 -22 -30 -33 -16 -11 -30
-26 -30 -32 0 -7 -4 -13 -9 -13 -5 0 -13 -9 -16 -21 -4 -11 -9 -18 -13 -15 -3
4 -15 -13 -27 -37 -11 -24 -25 -42 -31 -40 -6 2 -16 -7 -22 -19 -9 -20 -11
-18 -11 22 -1 47 19 90 109 235 130 211 186 275 262 301 26 8 48 17 48 19 0 1
-7 19 -15 39 -24 57 -44 140 -71 301 -32 184 -43 490 -24 642 34 275 110 524
236 776 14 26 22 47 19 47 -3 0 -22 -34 -42 -75 -19 -41 -39 -72 -44 -69 -5 3
-6 -2 -3 -10 3 -8 -2 -29 -11 -47 -10 -18 -30 -68 -44 -111 -15 -43 -29 -76
-32 -74 -2 2 -5 -5 -5 -17 -2 -27 -47 -183 -55 -192 -10 -10 3 89 13 102 14
18 19 61 8 68 -18 11 -10 23 13 18 17 -4 19 -3 11 6 -8 8 -9 25 -3 50 5 21 6
50 3 65 -4 23 -2 27 13 22 15 -5 18 1 19 30 1 20 8 40 15 45 12 7 12 12 1 30
-12 19 -11 20 6 15 16 -5 18 -2 14 24 -4 25 -1 30 17 30 11 0 21 5 21 10 0 6
-4 10 -10 10 -5 0 0 16 11 35 12 19 25 35 31 35 5 0 6 4 3 10 -3 5 1 23 10 40
9 17 13 35 10 40 -3 6 3 10 14 10 14 0 19 5 15 15 -4 8 -1 22 6 30 6 8 8 20 4
26 -5 9 -1 10 14 7 13 -4 20 -2 16 3 -3 6 2 22 12 37 10 15 17 30 16 35 -1 4
6 7 16 7 20 0 57 39 46 48 -4 4 -8 3 -11 -3 -9 -24 -22 -39 -29 -32 -4 4 1 16
10 26 10 11 15 24 11 30 -4 7 0 8 10 5 9 -4 15 -3 13 2 -5 17 24 56 37 50 10
-3 13 4 13 25 -1 20 6 35 21 46 13 9 21 22 18 32 -3 12 2 17 17 17 17 -1 21 5
21 29 0 24 5 31 23 33 12 2 20 7 17 12 -3 4 4 6 15 3 18 -5 20 0 21 38 0 24 3
38 6 32 7 -20 34 -16 31 4 -2 12 4 18 17 18 14 0 22 9 26 30 4 17 7 24 8 18 2
-24 20 -13 23 15 3 24 7 27 33 24 26 -4 28 -2 15 12 -10 13 -10 20 -2 28 9 9
12 9 12 0 0 -7 5 -12 10 -12 6 0 10 6 10 14 0 7 14 19 30 26 32 13 38 26 18
32 -15 5 13 38 31 38 6 0 11 4 11 9 0 5 10 11 22 14 12 4 19 9 16 13 -12 11
19 34 46 34 21 0 25 5 28 33 3 27 7 32 33 35 30 3 61 22 37 22 -7 0 -12 5 -12
10 0 6 9 10 19 10 12 0 25 12 33 30 9 21 20 30 35 30 13 0 23 5 23 12 0 19 41
57 56 51 8 -3 14 0 14 7 0 7 9 9 23 6 12 -3 16 -3 10 0 -17 8 -16 34 1 34 7 0
19 6 26 14 6 8 18 12 26 9 8 -3 14 1 14 9 0 8 15 18 33 23 22 7 33 17 35 33 2
15 10 22 26 22 13 0 29 7 36 15 7 9 19 14 27 11 7 -3 13 -1 13 4 0 6 6 10 14
10 8 0 24 13 37 29 12 16 29 27 36 24 8 -3 13 0 11 8 -2 9 9 15 32 17 19 2 39
10 43 18 4 8 20 14 35 15 15 0 21 3 15 6 -24 9 -13 23 17 23 17 0 30 5 30 11
0 7 10 9 25 7 14 -3 28 -1 31 3 3 5 1 9 -4 9 -22 0 -18 25 4 26 13 1 24 -2 24
-7 0 -5 10 -9 23 -8 12 0 16 3 10 6 -7 2 -13 11 -13 18 0 15 25 26 44 19 8 -3
16 3 19 15 3 12 13 21 22 21 12 0 15 -6 11 -22 -3 -13 1 -8 10 11 11 25 18 31
27 22 17 -17 29 -13 22 9 -4 11 -2 20 4 20 6 0 13 -11 17 -25 7 -26 18 -32 29
-14 4 6 -1 17 -11 24 -17 13 -16 14 17 15 20 0 42 7 49 15 12 14 73 31 97 27
7 -2 17 7 23 19 11 19 13 19 24 4 11 -15 14 -15 27 -3 8 8 21 15 29 16 63 5
123 15 165 27 28 7 85 13 128 12 l78 -2 -5 25 c-3 14 -3 19 0 13 3 -7 12 -13
19 -13z m-112 3 c-7 -2 -19 -2 -25 0 -7 3 -2 5 12 5 14 0 19 -2 13 -5z m434
-29 c-3 -3 -12 -4 -19 -1 -8 3 -5 6 6 6 11 1 17 -2 13 -5z m-667 -14 c0 -5 -4
-10 -10 -10 -5 0 -10 5 -10 10 0 6 5 10 10 10 6 0 10 -4 10 -10z m745 0 c3 -5
-1 -10 -9 -10 -9 0 -16 5 -16 10 0 6 4 10 9 10 6 0 13 -4 16 -10z m665 -250
c0 -5 -7 -10 -15 -10 -8 0 -15 5 -15 10 0 6 7 10 15 10 8 0 15 -4 15 -10z
m479 -196 c14 -12 -19 -1 -35 12 -18 14 -18 14 6 3 14 -6 27 -13 29 -15z m44
-11 c-7 -2 -19 -2 -25 0 -7 3 -2 5 12 5 14 0 19 -2 13 -5z m82 -331 c-3 -3
-11 0 -18 7 -9 10 -8 11 6 5 10 -3 15 -9 12 -12z m1274 -753 c23 -33 37 -58
32 -55 -6 4 -23 26 -38 49 -39 57 -45 67 -40 67 2 0 23 -27 46 -61z m-4102
-26 c1 -36 1 -37 -6 -8 -6 26 -5 45 3 45 1 0 2 -17 3 -37z m-13 -39 c3 -8 2
-12 -4 -9 -6 3 -10 10 -10 16 0 14 7 11 14 -7z m113 -46 c-3 -8 -6 -5 -6 6 -1
11 2 17 5 13 3 -3 4 -12 1 -19z m3936 -8 c3 -10 -1 -24 -7 -29 -10 -8 -11 -3
-8 19 5 35 8 37 15 10z m-5375 -75 c-3 -3 -9 2 -12 12 -6 14 -5 15 5 6 7 -7
10 -15 7 -18z m5382 -9 c0 -11 -19 -15 -25 -6 -3 5 1 10 9 10 9 0 16 -2 16 -4z
m-3149 -109 c-10 -9 -11 -8 -5 6 3 10 9 15 12 12 3 -3 0 -11 -7 -18z m-107
-167 c-15 -22 -28 -40 -31 -40 -6 0 18 43 35 63 25 29 24 19 -4 -23z m-1475
-146 c-40 -107 -98 -315 -100 -364 -1 -16 -3 -19 -6 -8 -12 46 52 282 117 436
39 91 32 50 -11 -64z m-812 14 c-3 -7 -5 -2 -5 12 0 14 2 19 5 13 2 -7 2 -19
0 -25z m410 -420 c-3 -8 -6 -5 -6 6 -1 11 2 17 5 13 3 -3 4 -12 1 -19z m290
-35 c-3 -10 -5 -4 -5 12 0 17 2 24 5 18 2 -7 2 -21 0 -30z m3943 -459 c-237
-240 -565 -408 -906 -465 -144 -24 -395 -32 -414 -13 -8 8 34 14 147 22 185
14 366 48 513 99 217 73 503 237 668 382 31 28 59 51 62 51 2 0 -29 -34 -70
-76z m-650 -510 c-86 -28 -233 -64 -258 -64 -9 1 52 19 137 40 85 22 157 42
159 45 3 3 12 5 21 4 9 -1 -18 -12 -59 -25z m-293 -70 c-3 -3 -12 -4 -19 -1
-8 3 -5 6 6 6 11 1 17 -2 13 -5z m-74 -11 c-7 -2 -19 -2 -25 0 -7 3 -2 5 12 5
14 0 19 -2 13 -5z m-2409 -29 c33 -8 75 -22 93 -30 17 -7 34 -14 37 -14 3 0
55 -21 114 -46 118 -50 214 -103 206 -115 -6 -10 34 -32 46 -24 5 3 12 0 16
-6 4 -8 3 -9 -4 -5 -25 15 -10 -3 16 -20 26 -17 27 -17 12 1 -15 18 -14 18 13
1 25 -17 40 -35 15 -20 -7 4 -8 3 -4 -4 4 -6 13 -9 20 -6 7 3 28 -10 46 -28
19 -18 41 -33 49 -33 9 -1 15 -6 14 -12 -1 -6 19 -27 45 -46 73 -53 138 -109
163 -142 13 -16 17 -25 9 -20 -8 5 -26 11 -40 13 -13 2 -30 8 -37 14 -8 6 -16
8 -19 5 -3 -3 -31 7 -62 23 -51 24 -138 66 -242 113 -58 27 -84 49 -143 118
-57 68 -163 148 -257 193 -61 30 -39 7 25 -26 147 -75 263 -200 332 -357 l25
-55 -28 28 c-31 30 -166 120 -229 151 -22 11 -41 23 -43 28 -2 4 -9 7 -15 7
-6 0 -19 8 -30 18 -19 17 -19 16 -13 -18 6 -29 5 -32 -5 -16 -6 10 -13 33 -15
50 -1 17 -3 33 -4 36 0 3 -5 -2 -10 -10 -9 -13 -11 -13 -20 0 -5 8 -18 39 -27
68 -22 70 -71 124 -139 158 -86 42 -32 59 90 28z m4651 -98 c-94 -228 -252
-482 -413 -664 -136 -154 -412 -383 -596 -494 -79 -48 -298 -158 -313 -158 -4
0 46 29 112 63 237 123 401 237 591 408 254 230 505 583 620 872 14 37 28 66
31 63 2 -2 -12 -43 -32 -90z m-4641 -48 c19 -32 18 -31 -23 10 -24 23 -48 42
-53 42 -5 0 -6 5 -3 10 3 6 1 10 -5 10 -6 0 -8 5 -4 11 8 13 61 -37 88 -83z
m-793 22 c63 -11 128 -24 144 -28 27 -8 28 -9 9 -16 -12 -3 -30 -16 -40 -27
-14 -16 -9 -15 31 7 l48 27 101 -22 c56 -13 119 -30 141 -39 38 -15 38 -16 15
-22 -21 -5 -17 -9 35 -29 101 -40 354 -155 415 -190 19 -10 81 -41 137 -67 56
-26 99 -52 96 -57 -3 -6 -2 -7 4 -4 15 10 282 -107 393 -172 8 -5 42 -22 75
-38 109 -51 280 -147 301 -168 35 -34 87 -75 97 -75 4 0 5 -4 2 -10 -3 -5 -2
-10 4 -10 15 0 101 -77 94 -84 -4 -3 1 -6 10 -6 10 0 26 -9 37 -20 11 -11 27
-20 35 -20 8 0 15 -4 15 -9 0 -20 -231 82 -395 174 -136 77 -274 147 -380 192
-107 46 -117 49 -70 21 22 -13 58 -29 80 -37 50 -16 80 -53 65 -80 -5 -11 -7
-26 -4 -34 6 -15 -159 45 -416 153 -63 27 -155 60 -205 75 -125 37 -234 92
-343 174 -114 85 -183 114 -272 115 -87 0 -146 -29 -232 -115 -38 -37 -68 -64
-68 -60 1 18 110 126 154 152 28 17 40 27 27 24 -16 -5 -21 -4 -17 4 4 6 1 11
-6 11 -15 0 -49 36 -42 43 3 3 -1 5 -8 4 -34 -1 -48 4 -48 19 0 11 -5 14 -16
10 -10 -4 -14 -2 -11 6 2 7 8 12 13 12 70 -10 116 -12 96 -4 -12 5 -38 10 -57
12 -46 3 -45 18 8 75 23 26 32 40 20 32 -12 -8 -41 -39 -63 -67 -23 -29 -47
-49 -52 -45 -7 3 -8 1 -4 -5 4 -7 4 -17 0 -24 -5 -8 -10 -6 -14 8 -4 10 -12
20 -19 20 -6 1 -19 2 -28 3 -14 1 -15 3 -5 10 9 5 -8 13 -49 21 -34 7 -68 13
-75 13 -8 0 -14 10 -14 21 -1 12 -10 -1 -24 -33 -24 -55 -35 -53 -37 7 -1 24
-3 22 -13 -11 -14 -45 -26 -39 -26 12 0 42 -23 81 -48 81 -9 0 -34 -24 -56
-54 -41 -56 -126 -251 -126 -289 0 -12 -5 -29 -10 -37 -9 -13 -10 -13 -10 0 0
61 98 297 160 383 73 102 206 128 441 87z m829 -104 c0 -12 -5 -7 -19 24 -11
24 -11 24 3 6 9 -11 16 -24 16 -30z m-97 20 c54 -16 107 -52 107 -72 0 -20
-27 -17 -60 6 -28 20 -42 18 -33 -6 7 -19 -6 -18 -29 3 -10 9 -37 18 -61 19
-23 2 -55 6 -72 9 -16 4 -47 7 -68 7 l-38 -1 26 25 c23 21 35 24 104 24 43 0
98 -6 124 -14z m-1105 -65 c3 -10 0 -12 -13 -7 -13 4 -16 2 -11 -9 3 -9 0 -15
-8 -15 -7 0 -19 -7 -26 -15 -10 -12 -6 -22 24 -57 20 -23 36 -48 36 -57 0 -11
-4 -10 -15 5 -15 19 -15 19 -8 -1 6 -18 5 -18 -13 2 -10 12 -34 25 -52 28 -30
5 -34 2 -47 -27 -10 -24 -14 -27 -14 -13 -1 34 38 108 77 148 37 38 61 44 70
18z m-8 -62 c0 -11 -4 -18 -10 -14 -5 3 -7 12 -3 20 7 21 13 19 13 -6z m130
-179 c195 -121 210 -132 199 -152 -13 -24 -14 -23 -60 13 -24 19 -39 26 -40
17 0 -7 -4 -3 -9 9 -5 12 -24 32 -43 45 -19 13 -60 40 -91 60 -41 28 -56 44
-56 60 0 13 3 18 8 12 4 -6 45 -35 92 -64z m663 -2 c73 -31 135 -83 166 -139
l24 -44 -50 50 c-116 117 -298 163 -400 102 l-34 -19 48 -26 c127 -67 383
-236 383 -253 0 -15 -10 -11 -59 25 -67 49 -184 119 -198 119 -7 0 -13 3 -13
7 0 10 -78 51 -93 48 -7 -2 -28 12 -46 31 l-34 35 -23 -29 c-13 -16 -40 -58
-61 -93 -40 -70 -58 -70 -22 0 96 192 241 258 412 186z m-908 12 c-3 -5 -2
-10 4 -10 6 0 15 -9 21 -20 9 -16 8 -18 -5 -14 -8 3 -12 10 -9 15 12 19 -15 8
-40 -18 -30 -30 -27 -46 5 -18 23 22 52 11 56 -21 2 -16 1 -15 -9 4 -6 12 -17
22 -24 22 -15 0 -46 -58 -38 -71 7 -12 -3 -11 -27 1 -21 12 -22 6 -9 -25 5
-11 9 -15 9 -9 1 7 10 14 21 17 11 3 20 12 20 21 0 9 8 16 20 16 12 0 20 -7
20 -16 0 -10 -6 -14 -15 -11 -23 10 -29 -12 -8 -36 10 -12 11 -17 3 -10 -18
13 -73 5 -63 -9 3 -6 0 -9 -8 -6 -8 3 -15 21 -17 42 -3 30 5 48 43 101 25 36
48 65 51 65 3 0 2 -4 -1 -10z m4779 -58 c2 -4 -4 -8 -14 -8 -10 0 -16 4 -14 8
3 4 9 8 14 8 5 0 11 -4 14 -8z m-4136 -68 c1 0 -11 -1 -27 -1 -22 0 -26 3 -17
13 8 9 15 9 26 1 8 -6 16 -12 18 -13z m4299 -13 c11 -17 10 -18 -13 -7 -26 12
-32 26 -11 26 7 0 17 -8 24 -19z m53 -15 c0 -2 -12 -11 -27 -20 l-28 -17 24
20 c23 21 31 25 31 17z m-3660 -152 c0 -14 7 -38 15 -54 19 -37 115 -117 203
-169 198 -118 312 -123 445 -18 21 16 40 27 43 24 11 -11 -29 -57 -74 -87
-117 -77 -215 -64 -415 57 -113 68 -175 116 -204 156 -25 35 -45 136 -25 123
7 -4 12 -18 12 -32z m-774 -15 c3 -6 -13 -30 -36 -54 -23 -24 -39 -48 -36 -53
3 -6 2 -13 -3 -16 -19 -12 -1 58 24 96 26 39 39 46 51 27z m1120 -77 c123 -55
180 -85 182 -97 2 -10 -6 -32 -18 -49 l-22 -31 31 33 c21 22 31 27 31 17 0 -9
-11 -27 -25 -41 -23 -23 -31 -25 -78 -19 -68 8 -203 52 -247 80 -19 12 -48 36
-65 53 -27 28 -30 36 -27 87 4 56 4 57 32 52 15 -3 108 -42 206 -85z m-257 18
c11 -24 11 -24 -3 -6 -9 11 -16 24 -16 30 0 12 5 7 19 -24z m-792 -39 c-14
-14 -39 -50 -57 -79 -31 -51 -32 -54 -15 -72 27 -30 40 -25 80 30 21 28 39 49
42 47 3 -4 -14 -52 -42 -119 -6 -15 -2 -18 23 -18 26 0 35 7 62 55 17 30 33
55 35 55 5 0 -30 -86 -45 -112 -8 -14 -4 -18 18 -21 15 -3 0 -3 -32 -2 -64 4
-60 -9 6 -20 21 -4 36 -11 32 -16 -8 -14 66 -10 120 6 26 8 64 25 84 37 19 12
32 16 28 10 -13 -21 -98 -59 -160 -72 -118 -24 -243 29 -326 139 -42 55 -58
109 -19 62 17 -21 22 -22 30 -10 5 7 9 10 9 4 0 -5 4 -5 8 2 28 45 116 131
129 126 11 -4 9 -11 -10 -32z m1408 -60 c3 -5 2 -12 -3 -15 -5 -3 -9 1 -9 9 0
17 3 19 12 6z m-606 -72 c64 -31 297 -165 373 -216 20 -14 45 -37 54 -52 15
-24 14 -23 -17 6 -19 17 -99 66 -179 108 -196 104 -330 185 -305 185 4 0 37
-14 74 -31z m938 -44 c63 -30 69 -40 12 -20 -101 36 -162 9 -219 -98 -56 -103
-64 -101 -21 3 39 95 63 124 111 133 49 9 64 7 117 -18z m60 -71 c55 -26 74
-40 79 -59 7 -29 -11 -81 -31 -89 -23 -9 -79 5 -136 33 -52 25 -54 28 -57 70
-2 25 -1 55 3 68 5 22 10 24 38 18 18 -4 65 -22 104 -41z m112 -127 c0 -10 -3
-15 -9 -12 -5 3 -9 25 -9 48 1 40 2 40 9 12 4 -16 8 -38 9 -48z m-1122 -10
c40 -21 76 -44 80 -50 3 -6 -25 7 -63 28 -38 21 -81 45 -96 52 -16 8 -28 16
-28 18 0 7 32 -7 107 -48z m958 -8 c55 -16 120 -34 145 -40 25 -7 40 -13 34
-16 -11 -4 -243 54 -324 81 l-45 15 45 -5 c25 -3 90 -19 145 -35z m379 21 c82
-31 106 -54 106 -101 0 -36 -2 -39 -28 -39 -16 0 -50 6 -76 14 -27 8 -55 12
-64 9 -13 -4 -14 -2 -4 4 10 8 10 12 -3 23 -10 8 -15 29 -15 61 0 57 4 58 84
29z m555 -70 c11 -24 11 -24 -3 -6 -9 11 -16 24 -16 30 0 12 5 7 19 -24z
m-1733 -31 c30 -17 54 -33 54 -35 0 -5 -47 18 -94 47 -51 31 -18 22 40 -12z
m1091 -5 c-3 -3 -12 -4 -19 -1 -8 3 -5 6 6 6 11 1 17 -2 13 -5z m1913 -24 c-8
-5 -19 -10 -25 -10 -5 0 -3 5 5 10 8 5 20 10 25 10 6 0 3 -5 -5 -10z m-2699
-169 c-17 -31 -69 -69 -109 -81 -47 -13 -89 -13 -97 0 -4 6 10 10 35 10 47 0
118 31 150 66 28 29 34 31 21 5z m1750 -273 c11 -21 11 -22 -4 -9 -10 7 -17
17 -17 22 0 15 9 10 21 -13z m34 -109 c-5 -15 -4 -19 5 -14 7 4 10 1 8 -11 -2
-11 2 -18 7 -17 6 1 10 -10 10 -23 l0 -25 -15 22 c-22 32 -41 81 -30 74 6 -3
10 -1 10 4 0 6 3 11 6 11 3 0 2 -10 -1 -21z m1092 -616 c-2 -37 -3 -9 -3 62 0
72 1 102 3 68 2 -34 2 -93 0 -130z m-402 107 c8 -13 -5 -13 -25 0 -13 8 -13
10 2 10 9 0 20 -4 23 -10z"/>
<path d="M5220 8684 c0 -8 5 -12 10 -9 6 3 10 10 10 16 0 5 -4 9 -10 9 -5 0
-10 -7 -10 -16z"/>
<path d="M4548 8613 c6 -2 18 -2 25 0 6 3 1 5 -13 5 -14 0 -19 -2 -12 -5z"/>
<path d="M4613 8603 c9 -2 23 -2 30 0 6 3 -1 5 -18 5 -16 0 -22 -2 -12 -5z"/>
<path d="M5645 8540 c3 -5 13 -10 21 -10 8 0 14 5 14 10 0 6 -9 10 -21 10 -11
0 -17 -4 -14 -10z"/>
<path d="M5088 8493 c7 -3 16 -2 19 1 4 3 -2 6 -13 5 -11 0 -14 -3 -6 -6z"/>
<path d="M5283 8483 c15 -2 39 -2 55 0 15 2 2 4 -28 4 -30 0 -43 -2 -27 -4z"/>
<path d="M5393 8473 c9 -2 25 -2 35 0 9 3 1 5 -18 5 -19 0 -27 -2 -17 -5z"/>
<path d="M5483 8463 c9 -2 23 -2 30 0 6 3 -1 5 -18 5 -16 0 -22 -2 -12 -5z"/>
<path d="M5575 8449 c51 -10 92 -10 50 1 -16 4 -43 8 -60 8 -25 0 -24 -2 10
-9z"/>
<path d="M5810 8450 c34 -11 60 -11 35 0 -11 5 -29 8 -40 8 -16 0 -15 -2 5 -8z"/>
<path d="M5772 8416 c58 -13 143 -34 188 -46 46 -11 85 -18 88 -15 3 3 -3 5
-14 5 -16 0 -17 2 -4 11 13 9 12 10 -3 5 -10 -3 -73 7 -140 23 -67 16 -144 32
-172 35 -27 3 -2 -5 57 -18z"/>
<path d="M4573 8288 c-15 -24 -38 -55 -52 -70 -13 -15 -22 -30 -19 -33 3 -3
16 9 29 27 38 51 80 118 74 118 -2 0 -17 -19 -32 -42z"/>
<path d="M3440 8270 c0 -5 5 -10 10 -10 6 0 10 5 10 10 0 6 -4 10 -10 10 -5 0
-10 -4 -10 -10z"/>
<path d="M6521 8156 c2 -2 15 -9 29 -15 24 -11 24 -11 6 3 -16 13 -49 24 -35
12z"/>
<path d="M3200 8090 c0 -5 5 -10 11 -10 5 0 7 5 4 10 -3 6 -8 10 -11 10 -2 0
-4 -4 -4 -10z"/>
<path d="M3440 8070 c-19 -11 -31 -19 -27 -20 11 0 67 29 67 35 0 7 -1 7 -40
-15z"/>
<path d="M6267 8019 c7 -7 15 -10 18 -7 3 3 -2 9 -12 12 -14 6 -15 5 -6 -5z"/>
<path d="M3289 7979 l-24 -20 28 17 c15 9 27 18 27 20 0 8 -8 4 -31 -17z"/>
<path d="M3040 7939 c0 -11 5 -17 10 -14 6 3 10 13 10 21 0 8 -4 14 -10 14 -5
0 -10 -9 -10 -21z"/>
<path d="M3165 7894 c-19 -15 -22 -21 -9 -15 18 9 52 41 43 41 -2 0 -17 -12
-34 -26z"/>
<path d="M3075 7830 c-4 -6 -12 -7 -18 -4 -7 4 -9 4 -5 -1 4 -4 0 -14 -10 -22
-15 -13 -15 -13 4 -4 21 10 52 41 41 41 -3 0 -9 -5 -12 -10z"/>
<path d="M2960 7739 l-45 -41 42 32 c37 27 61 51 51 50 -2 0 -23 -19 -48 -41z"/>
<path d="M5498 7733 c7 -3 16 -2 19 1 4 3 -2 6 -13 5 -11 0 -14 -3 -6 -6z"/>
<path d="M5700 7670 c8 -5 22 -9 30 -9 10 0 8 3 -5 9 -27 12 -43 12 -25 0z"/>
<path d="M2849 7643 c-13 -16 -12 -17 4 -4 16 13 21 21 13 21 -2 0 -10 -8 -17
-17z"/>
<path d="M2899 7643 c-13 -16 -12 -17 4 -4 16 13 21 21 13 21 -2 0 -10 -8 -17
-17z"/>
<path d="M5950 7590 c8 -5 20 -10 25 -10 6 0 3 5 -5 10 -8 5 -19 10 -25 10 -5
0 -3 -5 5 -10z"/>
<path d="M2740 7535 c-35 -36 -47 -42 -62 -34 -10 5 -18 7 -18 5 0 -3 8 -10
18 -15 15 -8 27 -1 68 40 26 27 46 49 43 49 -3 0 -24 -20 -49 -45z"/>
<path d="M6010 7565 c14 -8 30 -14 35 -14 6 0 -1 6 -15 14 -14 8 -29 14 -35
14 -5 0 1 -6 15 -14z"/>
<path d="M5468 7563 c7 -3 16 -2 19 1 4 3 -2 6 -13 5 -11 0 -14 -3 -6 -6z"/>
<path d="M6120 7510 c33 -26 52 -25 21 0 -13 11 -28 20 -35 20 -6 0 0 -9 14
-20z"/>
<path d="M2560 7489 c0 -11 27 -12 34 -1 2 4 -4 9 -15 9 -10 1 -19 -2 -19 -8z"/>
<path d="M6171 7487 c2 -1 13 -9 24 -17 19 -14 19 -14 6 3 -7 9 -18 17 -24 17
-6 0 -8 -1 -6 -3z"/>
<path d="M2660 7455 c-7 -9 -11 -17 -9 -20 3 -2 10 5 17 15 14 24 10 26 -8 5z"/>
<path d="M2674 7418 l-29 -33 33 29 c30 28 37 36 29 36 -2 0 -16 -15 -33 -32z"/>
<path d="M2611 7397 c-13 -21 -12 -21 5 -5 10 10 16 20 13 22 -3 3 -11 -5 -18
-17z"/>
<path d="M2560 7337 c-21 -17 -62 -77 -53 -76 4 0 23 20 40 45 18 24 32 44 30
44 -1 0 -9 -6 -17 -13z"/>
<path d="M2480 7235 c-7 -9 -10 -18 -7 -21 3 -3 10 4 17 15 13 25 8 27 -10 6z"/>
<path d="M7555 7190 c3 -5 8 -10 11 -10 2 0 4 5 4 10 0 6 -5 10 -11 10 -5 0
-7 -4 -4 -10z"/>
<path d="M2443 7178 c-15 -20 -25 -38 -20 -38 3 0 12 11 21 25 17 26 16 35 -1
13z"/>
<path d="M2388 7098 c-27 -36 -97 -159 -81 -143 12 13 114 175 109 175 -2 0
-15 -15 -28 -32z"/>
<path d="M2365 7109 c-4 -6 -5 -12 -2 -15 2 -3 7 2 10 11 7 17 1 20 -8 4z"/>
<path d="M7575 6959 c-4 -6 -4 -13 -1 -16 3 -4 6 -1 6 6 0 7 5 9 12 5 7 -4 8
-3 4 4 -9 15 -13 15 -21 1z"/>
<path d="M2171 6754 c0 -11 3 -14 6 -6 3 7 2 16 -1 19 -3 4 -6 -2 -5 -13z"/>
<path d="M2471 5824 c0 -11 3 -14 6 -6 3 7 2 16 -1 19 -3 4 -6 -2 -5 -13z"/>
<path d="M2451 5744 c0 -11 3 -14 6 -6 3 7 2 16 -1 19 -3 4 -6 -2 -5 -13z"/>
<path d="M3908 5703 c7 -3 16 -2 19 1 4 3 -2 6 -13 5 -11 0 -14 -3 -6 -6z"/>
<path d="M2461 5664 c0 -11 3 -14 6 -6 3 7 2 16 -1 19 -3 4 -6 -2 -5 -13z"/>
<path d="M4277 5589 c7 -7 15 -10 18 -7 3 3 -2 9 -12 12 -14 6 -15 5 -6 -5z"/>
<path d="M4525 5515 c44 -20 154 -53 160 -47 5 5 -109 44 -162 56 l-28 6 30
-15z"/>
<path d="M2213 5292 c1 -14 5 -18 11 -12 7 7 6 14 -1 21 -9 9 -12 7 -10 -9z"/>
<path d="M2151 5284 c0 -11 3 -14 6 -6 3 7 2 16 -1 19 -3 4 -6 -2 -5 -13z"/>
<path d="M8066 5064 c-4 -20 -5 -38 -3 -40 3 -3 8 11 11 32 4 20 5 38 3 40 -3
3 -8 -11 -11 -32z"/>
<path d="M6910 4631 c0 -6 4 -13 10 -16 6 -3 7 1 4 9 -7 18 -14 21 -14 7z"/>
<path d="M6871 4596 c-14 -15 -19 -26 -12 -31 11 -6 12 -5 15 15 0 6 8 15 16
20 8 5 12 11 9 14 -3 3 -16 -5 -28 -18z"/>
<path d="M6936 4593 c-6 -14 -5 -15 5 -6 7 7 10 15 7 18 -3 3 -9 -2 -12 -12z"/>
<path d="M6940 4570 c-9 -6 -10 -10 -3 -10 6 0 15 5 18 10 8 12 4 12 -15 0z"/>
<path d="M6815 4540 c-10 -11 -13 -20 -8 -20 13 0 38 29 31 35 -3 3 -13 -4
-23 -15z"/>
<path d="M7249 4503 l-24 -28 28 24 c25 23 32 31 24 31 -2 0 -14 -12 -28 -27z"/>
<path d="M7071 4440 c-33 -32 -39 -43 -18 -34 12 5 62 64 54 64 -2 0 -18 -14
-36 -30z"/>
<path d="M7180 4440 c-9 -6 -10 -10 -3 -10 6 0 15 5 18 10 8 12 4 12 -15 0z"/>
<path d="M7055 4334 c-60 -56 -52 -56 15 0 30 25 57 57 48 56 -2 0 -30 -26
-63 -56z"/>
<path d="M5080 4235 c0 -5 5 -17 10 -25 5 -8 10 -10 10 -5 0 6 -5 17 -10 25
-5 8 -10 11 -10 5z"/>
<path d="M5120 4155 c0 -5 5 -17 10 -25 5 -8 10 -10 10 -5 0 6 -5 17 -10 25
-5 8 -10 11 -10 5z"/>
<path d="M5490 3551 c0 -6 4 -13 10 -16 6 -3 7 1 4 9 -7 18 -14 21 -14 7z"/>
<path d="M5757 3355 c3 -8 9 -12 14 -9 12 7 11 11 -5 17 -10 4 -13 1 -9 -8z"/>
<path d="M3737 4296 c28 -13 62 -27 75 -30 12 -4 0 5 -29 18 -28 13 -62 27
-75 30 -12 4 0 -5 29 -18z"/>
<path d="M2550 3986 c0 -2 8 -10 18 -17 15 -13 16 -12 3 4 -13 16 -21 21 -21
13z"/>
</g>
</svg>
